<svg xmlns="http://www.w3.org/2000/svg">

<!-- <symbol id="phone" viewBox="0 0 30 30" xmlns="http://www.w3.org/2000/svg">
<path d="M7.39635 8.62432C7.31179 7.42623 7.57753 6.24606 8.28114 5.29684C8.89115 4.43632 9.68536 3.96636 10.6426 3.69172C11.4489 3.4525 11.9774 3.74561 12.2099 4.64204C12.5421 5.98224 13.0162 7.3225 13.1884 8.73361C13.2427 9.35485 12.8411 10.2332 12.4062 10.6856C11.3161 11.7589 11.5426 12.5399 12.37 14.1643C12.6267 14.6881 13.0344 15.5934 13.8286 16.7919C14.656 17.9992 15.0939 18.6472 16.1569 18.0975C17.3376 17.5035 18.1983 17.8855 19.0891 18.8444C19.6931 19.5369 20.3574 20.1318 20.9614 20.8243C21.8341 21.8542 21.7949 22.5641 21.1124 23.2915C19.8833 24.6309 17.854 25.0736 16.3441 24.1766C15.5106 23.6881 14.6802 23.0487 14.0188 22.303C11.1047 18.9825 9.00291 15.1212 7.73759 10.7632C7.53526 10.0265 7.44165 9.28104 7.39635 8.62432Z" stroke-width="2" stroke-miterlimit="10"/>
</symbol> -->

<symbol id="phone" viewBox="0 0 22 24" fill="none" xmlns="http://www.w3.org/2000/svg">
<path d="M3.45641 6.62432C3.37185 5.42623 3.63759 4.24606 4.3412 3.29684C4.9512 2.43632 5.74541 1.96636 6.70269 1.69172C7.50898 1.4525 8.03745 1.74561 8.26998 2.64204C8.60217 3.98224 9.07628 5.3225 9.24841 6.73361C9.30277 7.35485 8.90114 8.23322 8.46629 8.6856C7.37614 9.75888 7.60263 10.5399 8.43006 12.1643C8.68675 12.6881 9.09442 13.5934 9.88864 14.7919C10.7161 15.9992 11.1539 16.6472 12.2169 16.0975C13.3977 15.5035 14.2583 15.8855 15.1492 16.8444C15.7531 17.5369 16.4175 18.1318 17.0215 18.8243C17.8942 19.8542 17.8549 20.5641 17.1725 21.2915C15.9434 22.6309 13.9141 23.0736 12.4042 22.1766C11.5707 21.6881 10.7402 21.0487 10.0789 20.303C7.16477 16.9825 5.06297 13.1212 3.79765 8.76321C3.59532 8.02654 3.50171 7.28104 3.45641 6.62432Z" stroke="#0AD9C6" stroke-width="2" stroke-miterlimit="10"/>
</symbol>

<!-- <symbol id="mail" viewBox="0 0 26 20" xmlns="http://www.w3.org/2000/svg">
<path d="M24.2273 0H1.77273C0.768182 0 0 0.764706 0 1.76471V18.2353C0 19.2353 0.768182 20 1.77273 20H24.2273C25.2318 20 26 19.2353 26 18.2353V1.76471C26 0.764706 25.2318 0 24.2273 0ZM24.2273 17L19.5591 12.3529C19.2045 12 18.6727 12 18.3182 12.3529C17.9636 12.7059 17.9636 13.2353 18.3182 13.5882L22.9864 18.2353H3.01362L7.68182 13.5882C8.03636 13.2353 8.03636 12.7059 7.68182 12.3529C7.32727 12 6.79547 12 6.44092 12.3529L1.77273 17V5.70585L12.4091 13.7059C12.5864 13.8236 12.7636 13.8823 12.9409 13.8823C13.1182 13.8823 13.2954 13.8236 13.4727 13.7059L24.2273 5.70585V17ZM24.2273 1.76471V3.4706L12.9409 11.8235L1.77273 3.4706V1.76471H24.2273Z" fill="#D7D9DF"/>
</symbol> -->

<symbol id="mail" viewBox="0 0 26 20" fill="none" xmlns="http://www.w3.org/2000/svg">
<path d="M24.2273 0H1.77273C0.768182 0 0 0.764706 0 1.76471V18.2353C0 19.2353 0.768182 20 1.77273 20H24.2273C25.2318 20 26 19.2353 26 18.2353V1.76471C26 0.764706 25.2318 0 24.2273 0ZM24.2273 17L19.5591 12.3529C19.2045 12 18.6727 12 18.3182 12.3529C17.9636 12.7059 17.9636 13.2353 18.3182 13.5882L22.9864 18.2353H3.01362L7.68182 13.5882C8.03636 13.2353 8.03636 12.7059 7.68182 12.3529C7.32727 12 6.79547 12 6.44092 12.3529L1.77273 17V5.70585L12.4091 13.7059C12.5864 13.8236 12.7636 13.8823 12.9409 13.8823C13.1182 13.8823 13.2954 13.8236 13.4727 13.7059L24.2273 5.70585V17ZM24.2273 1.76471V3.4706L12.9409 11.8235L1.77273 3.4706V1.76471H24.2273Z" fill="#0AD9C6"/>
</symbol>

</svg>
